<svg width="257" height="481" viewBox="0 0 257 481" fill="none" xmlns="http://www.w3.org/2000/svg">
<path opacity="0.1" d="M126.277 480.115C196.002 480.115 252.524 469.549 252.524 456.515C252.524 443.481 196.002 432.915 126.277 432.915C56.5528 432.915 0.0300293 443.481 0.0300293 456.515C0.0300293 469.549 56.5528 480.115 126.277 480.115Z" fill="white"/>
<path d="M256.03 188.025L234.071 173.417L245.147 157.146L187.15 152.583L166.309 168.486L140.221 154.054L118.463 156.637L118.205 150.977C117.935 145.077 117.335 139.197 116.405 133.362C116.499 131.594 116.563 129.563 116.556 127.356C116.556 118.053 115.28 105.723 109.674 97.5027L110.964 86.0566L100.497 73.8535C102.178 70.5495 104.095 67.3675 106.232 64.3315C106.591 63.8222 106.949 63.327 107.337 62.8459C120.922 61.8767 131.64 50.855 131.64 37.3786C131.64 36.756 131.64 36.1335 131.568 35.518C131.568 35.2704 131.518 35.0157 131.489 34.7681C132.815 35.4756 134.156 36.183 135.497 36.8904C135.748 37.2441 136.034 37.5979 136.35 38.0152L136.414 38.093L136.816 38.5812L136.945 38.7297C137.088 38.8995 137.239 39.0622 137.389 39.232L137.49 39.3452C137.87 39.7626 138.271 40.187 138.701 40.6044C138.752 40.6455 138.8 40.6905 138.845 40.7388L139.382 41.234L139.533 41.3684C139.992 41.7717 140.479 42.1608 140.967 42.5286L141.124 42.6418L141.741 43.0592L141.942 43.1865C142.178 43.328 142.422 43.4766 142.658 43.611L142.745 43.6605C143.024 43.8091 143.311 43.9505 143.598 44.085L143.741 44.1416C143.985 44.2453 144.224 44.3443 144.458 44.4387L144.68 44.5165C144.931 44.6014 145.175 44.6792 145.433 44.7499L145.591 44.7924C145.906 44.8702 146.222 44.9339 146.544 44.9834H146.58C146.884 45.0319 147.19 45.0626 147.498 45.0753H147.706C147.98 45.0895 148.255 45.0895 148.53 45.0753H148.709C149.053 45.0558 149.395 45.0156 149.734 44.9551C151.338 44.747 152.879 44.2018 154.251 43.3563C154.6 43.1258 154.91 42.8415 155.169 42.5145C156.602 40.661 155.025 38.6307 155.025 38.6307C154.466 37.3149 150.838 36.3881 150.838 36.3881C150.838 36.3881 139.368 31.6625 139.368 27.899C139.368 24.1355 136.5 4.61054 106.899 0.146681C106.899 0.146681 87.6431 -0.921536 82.2305 9.25126L82.1158 10.4397C80.5242 11.4231 79.2051 13.3968 77.6351 13.9769C76.9568 14.1206 76.3026 14.3588 75.6923 14.6843V14.5499C75.511 14.7063 75.3625 14.8962 75.255 15.1088C74.9177 15.7709 74.7155 16.492 74.6599 17.231C74.4984 18.1338 74.1807 19.0025 73.7208 19.799C73.5925 20.0253 73.4488 20.2428 73.2906 20.4498V20.4498L73.1688 20.6408C74.0011 20.7048 74.8368 20.5714 75.6062 20.2517C75.485 21.2203 75.2442 22.1706 74.8893 23.0815C75.3451 23.096 75.7955 22.981 76.1869 22.7503C76.5783 22.5195 76.8944 22.1827 77.0974 21.7798V21.7232L77.1906 21.5959C77.3709 21.2684 77.5197 20.9249 77.6351 20.5701L77.5562 20.655C77.6996 20.1951 77.8286 19.7282 77.9864 19.2755C78.0586 19.0205 78.1777 18.7807 78.3376 18.5681C78.529 18.3777 78.763 18.2344 79.0207 18.1496C79.2785 18.0648 79.5528 18.041 79.8216 18.0799L79.5277 24.2133H79.6568C79.4841 24.6595 79.273 25.0902 79.0259 25.5009C78.0079 27.1279 76.1583 28.2386 75.4772 30.0213C75.1835 30.8811 75.0713 31.7912 75.1474 32.6954C75.1474 33.226 75.2119 33.7636 75.255 34.2942V34.2517C75.3553 35.6666 75.384 37.0107 74.6097 38.1496C74.0792 38.9278 73.2261 39.515 72.9322 40.3993C72.8509 40.6457 72.8145 40.9043 72.8246 41.1633C72.8822 41.9385 73.0462 42.7025 73.3121 43.4341C73.3153 43.4201 73.3153 43.4057 73.3121 43.3917C73.4909 43.9299 73.5328 44.5032 73.434 45.0612C73.1114 46.476 71.3693 47.6575 71.4554 49.0086C71.4504 49.1863 71.4771 49.3635 71.5342 49.5321C71.8694 50.1921 72.4498 50.699 73.1544 50.947C74.2597 51.5672 75.5292 51.8434 76.7963 51.7393C77.2712 51.6546 77.7305 51.4996 78.1584 51.2795C77.6566 52.4184 77.1404 53.5432 76.6171 54.6115C76.5382 54.7812 76.4522 54.951 76.3662 55.1208C76.3662 55.1208 71.9357 52.1991 69.4193 58.1557C68.6847 59.3935 68.1593 60.7411 67.8637 62.1456C67.7376 62.7074 67.56 63.2567 67.3331 63.7868C66.216 65.653 64.5441 67.1349 62.5442 68.0313C57.4111 70.3517 36.6782 95.8686 36.3126 102.476C36.1332 105.055 35.6912 107.61 34.9935 110.102C33.3614 115.97 32.9421 122.103 33.7604 128.134C34.0166 130.084 34.4411 132.008 35.0293 133.886C37.2302 140.486 38.6999 152.802 38.6999 152.802L41.08 174.181C40.9917 177.131 41.1211 180.084 41.4672 183.016C39.0368 185.754 29.2798 197.165 33.0077 200.271C35.8753 202.718 40.8936 202.315 43.7111 201.813C41.3381 207.607 37.603 217.68 37.1084 224.599C36.3915 234.836 38.3343 248.397 41.4098 253.604C44.4853 258.81 54.7371 272.166 54.7371 272.166C54.7371 272.166 54.2568 290.489 57.9202 297.146C61.5836 303.803 63.0604 317.612 63.0604 317.612C63.0604 317.612 66.48 329.27 64.7666 333.557C63.0532 337.844 67.9425 341.409 62.8094 344.26C57.6764 347.111 51.1096 411.367 51.1096 411.367C51.1096 411.367 48.4642 453.48 51.1096 455.623C51.2511 455.725 51.4024 455.813 51.5612 455.885V470.034C51.5612 470.034 49.7259 473.005 57.1889 473.606C62.3004 474.009 76.7891 474.922 85.3848 475.453L92.0449 475.863C92.0449 475.863 107.817 478.961 114.785 475.863C121.753 472.764 134.106 472.835 132.271 464.65C132.027 463.536 131.701 462.442 131.296 461.375C129.281 456.295 125.861 455.715 119.56 454.3C119.194 454.223 118.843 454.152 118.52 454.095C111.882 452.956 109.702 456.005 105.982 452.037C102.748 448.606 92.4535 444.764 88.9479 443.548C89.0339 443.293 89.1414 443.045 89.2275 442.784C88.2348 442.617 87.3115 442.173 86.5677 441.503L96.0667 442.097L101.723 442.444C101.723 442.444 115.129 445.083 121.08 442.444C127.03 439.805 137.497 439.876 135.934 432.922C135.728 431.974 135.452 431.043 135.109 430.135C133.396 425.819 130.485 425.345 125.13 424.15C124.822 424.086 124.535 424.023 124.248 423.973C118.606 423.004 116.757 425.593 113.595 422.226C110.885 419.354 102.333 416.135 99.257 415.038C99.257 413.468 97.1063 411.232 95.7513 408.99C94.1598 406.372 97.0991 397.211 97.0991 397.211L98.7767 359.201C99.4155 358.92 100.091 358.73 100.784 358.635C100.784 358.635 108.369 351.49 106.655 343.878C106.306 341.576 106.124 339.252 106.111 336.924C108.605 334.639 112.039 331.265 113.014 329.185C114.606 325.796 113.014 309.377 113.014 309.377V246.593L125.704 247.859L137.217 249.026L140.723 249.38L152.236 250.526L178.697 253.165L202.542 248.708L212.858 246.784L234.071 242.822V191.605L256.03 188.025ZM81.3845 18.3063L79.9077 18.1507C80.3952 18.1719 80.9113 18.2639 81.3845 18.3063Z" fill="url(#paint0_linear)"/>
<path d="M204.563 221.281C197.394 231.404 171.621 226.042 171.621 226.042L151.648 207.6L148.96 205.102L153.469 195.651C153.469 195.651 154.903 196.04 157.362 196.733C170.274 200.433 210.614 212.771 204.563 221.281Z" fill="#EFB7B9"/>
<path opacity="0.1" d="M157.348 196.733C156.466 199.761 154.05 204.296 151.648 207.6L148.96 205.102L153.469 195.651C153.469 195.651 154.918 196.04 157.348 196.733Z" fill="black"/>
<path d="M88.8475 90.1526C88.8475 90.1526 70.4374 98.2102 71.3407 117.997C71.9906 130.744 73.3982 143.443 75.556 156.028C75.556 156.028 71.7923 185.804 87.4639 193.479C103.135 201.155 117.638 207.465 117.638 207.465C117.638 207.465 142.157 210.068 145.204 211.144C148.25 212.219 157.771 195.778 156.014 193.218C154.258 190.657 131.754 185.287 128.887 181.014C126.019 176.742 119.388 174.103 119.388 174.103C119.388 174.103 112.541 170.014 112.075 166.321C111.609 162.628 113.416 159.877 113.875 158.257C114.334 156.637 115.495 140.995 115.495 140.995C115.495 140.995 123.223 85.3209 88.8475 90.1526Z" fill="#DCE6F2"/>
<path opacity="0.1" d="M100.999 155.215C100.999 155.215 75.7425 159.388 78.1872 168.111C78.1872 168.111 87.3564 158.695 100.999 155.215Z" fill="black"/>
<path opacity="0.1" d="M101.193 158.745C101.193 158.745 87.3061 169.929 90.0232 170.502C92.7403 171.075 101.193 158.745 101.193 158.745Z" fill="black"/>
<path opacity="0.1" d="M107.867 162.643C107.867 162.643 104.146 170.163 106.433 169.653C108.72 169.144 107.867 162.643 107.867 162.643Z" fill="black"/>
<path opacity="0.1" d="M158.28 197.533L156.746 197.101C157.183 195.687 157.305 194.541 156.946 194.01C155.19 191.449 132.701 186.087 129.84 181.807C126.98 177.527 120.341 174.895 120.341 174.895C120.341 174.895 113.495 170.806 113.029 167.114C112.563 163.421 114.369 160.669 114.828 159.049C115.287 157.429 116.448 141.781 116.448 141.781C116.448 141.781 124.155 86.1133 89.7795 90.945C89.7795 90.945 71.3693 99.0096 72.2654 118.796C72.9157 131.544 74.3256 144.243 76.488 156.828C76.488 156.828 72.7243 186.603 88.3958 194.279C104.067 201.954 118.57 208.265 118.57 208.265C118.57 208.265 143.081 210.861 146.135 211.943C147.29 212.354 149.376 210.238 151.419 207.331L152.58 208.399L172.553 226.835C172.553 226.835 198.326 232.204 205.495 222.081C211.553 213.563 171.22 201.226 158.28 197.533Z" fill="black"/>
<path d="M78.2517 15.887C77.5499 16.0224 76.8777 16.2786 76.2659 16.6439C75.549 17.2311 75.549 18.2357 75.3697 19.1129C75.1592 20.3331 74.6688 21.4897 73.9359 22.4944C74.7517 22.5534 75.57 22.42 76.3232 22.1053C76.2005 23.0735 75.9598 24.0236 75.6063 24.935C76.053 24.9462 76.4935 24.83 76.875 24.6004C77.2564 24.3708 77.5627 24.0374 77.757 23.6404C78.1363 22.8432 78.4365 22.0116 78.6531 21.1573C78.7205 20.9018 78.8374 20.6616 78.9973 20.4499C79.6568 19.6788 80.8827 20.0254 81.9007 20.1245C82.7479 20.195 83.5988 20.0406 84.3652 19.6774C85.1316 19.3142 85.7857 18.7554 86.2595 18.0588C87.3421 16.4388 87.4066 12.2933 84.8257 11.8547C82.1302 11.4161 80.4526 15.0805 78.2517 15.887Z" fill="#333333"/>
<g opacity="0.1">
<path opacity="0.1" d="M76.1942 17.514C76.2587 17.1674 76.3018 16.8066 76.3806 16.46C75.6996 17.0471 75.6637 18.0446 75.4845 18.9289C75.3942 19.4391 75.2525 19.9391 75.0615 20.4216C75.626 19.5337 76.0107 18.5463 76.1942 17.514V17.514Z" fill="black"/>
<path opacity="0.1" d="M76.4235 23.3573C76.7805 22.4471 77.0213 21.4965 77.1404 20.5276C76.4226 20.8257 75.6454 20.9588 74.8678 20.9167C74.6414 21.4142 74.3652 21.8882 74.0433 22.3315C74.8562 22.3936 75.6724 22.2626 76.4235 21.9495C76.3044 22.9184 76.0636 23.869 75.7066 24.7792C76.1531 24.7896 76.5932 24.673 76.9745 24.4435C77.3558 24.214 77.6623 23.8811 77.8573 23.4846C78.0359 23.1631 78.1801 22.824 78.2874 22.473C78.0771 22.7631 77.796 22.9962 77.4702 23.1508C77.1444 23.3053 76.7844 23.3763 76.4235 23.3573V23.3573Z" fill="black"/>
<path opacity="0.1" d="M82.7181 18.5468C81.7001 18.4478 80.467 18.1011 79.8074 18.8722C79.6504 19.0856 79.5338 19.3253 79.4633 19.5796C79.3988 19.7636 79.3414 19.9546 79.2913 20.1456C79.9723 19.615 81.0764 19.898 82.0012 19.9899C82.8481 20.0582 83.6982 19.9028 84.4642 19.5398C85.2302 19.1768 85.8845 18.6192 86.3599 17.9243C86.5772 17.5808 86.7393 17.2061 86.8403 16.8136C86.3493 17.4132 85.7167 17.8848 84.998 18.187C84.2793 18.4892 83.4964 18.6127 82.7181 18.5468Z" fill="black"/>
</g>
<path d="M99.8305 74.3134L110.763 87.2876L109.337 100.382L96.1241 79.9728L99.8305 74.3134Z" fill="#DCE6F2"/>
<path opacity="0.1" d="M110.756 87.2876L109.416 99.6039L109.33 100.382L97.4074 81.9606L96.1241 79.9728L96.4969 79.3998L99.8234 74.3134L100.562 75.1906L110.756 87.2876Z" fill="black"/>
<path d="M116.434 56.7479C112.735 57.7949 109.2 61.3886 106.125 65.7534C104.046 68.765 102.187 71.9187 100.562 75.1905C99.5509 77.1854 98.662 79.1026 97.9235 80.7721L97.4074 81.9606C96.16 84.8681 95.4646 86.8135 95.4646 86.8135C95.4646 86.8135 67.1468 65.803 71.6274 64.3881C73.1329 63.9141 75.1116 60.7307 77.0687 56.7196L77.3125 56.2102C78.5527 53.6352 79.7715 50.7631 80.854 48.0607C83.0692 42.5074 84.711 37.6827 84.711 37.6827C84.711 37.6827 127.725 53.5645 116.434 56.7479Z" fill="#EFB7B9"/>
<path d="M133.375 36.5013C133.375 36.5013 139.913 48.1739 148.695 46.5822C157.477 44.9905 153.864 40.3144 153.864 40.3144L133.375 36.5013Z" fill="#444053"/>
<path d="M120.707 440.548C114.914 443.158 101.816 440.548 101.816 440.548L96.2962 440.209C89.1271 439.756 77.1261 438.992 72.882 438.652C66.688 438.15 68.2078 435.646 68.2078 435.646V420.514L98.2605 413.001C98.2605 413.001 110.14 417.012 113.394 420.514C116.484 423.853 118.291 421.285 123.804 422.247C124.076 422.296 124.363 422.353 124.664 422.424C129.898 423.605 132.737 424.072 134.414 428.352C134.751 429.251 135.022 430.173 135.224 431.111C136.773 438.001 126.492 437.952 120.707 440.548Z" fill="#A36468"/>
<path opacity="0.1" d="M134.414 428.352C133.337 429.016 132.205 429.589 131.03 430.064C127.087 431.84 123.338 434.004 119.352 435.681C115.366 437.358 111.072 438.553 106.756 438.235C104.498 438.072 102.189 437.527 100.031 438.164C98.6968 438.673 97.4398 439.361 96.2962 440.209C89.1271 439.756 77.1261 438.992 72.882 438.652C66.688 438.15 68.2078 435.646 68.2078 435.646V433.877C68.43 433.877 68.681 433.813 68.9677 433.792C70.4513 433.769 71.9287 433.986 73.3408 434.436C76.4522 435.271 79.5492 436.091 82.6606 436.912C82.9165 435.959 83.3663 435.067 83.9825 434.292C84.5988 433.516 85.3686 432.872 86.2452 432.399C88.021 431.468 90.0142 431.017 92.0234 431.09C96.8482 431.153 101.415 433.41 106.233 433.637C107.579 433.759 108.935 433.534 110.168 432.986C110.828 432.66 111.409 432.186 112.054 431.826C113.086 431.333 114.177 430.969 115.301 430.743C118.461 429.967 121.562 428.979 124.585 427.786C125.446 427.454 126.449 426.852 126.335 425.947C126.184 424.744 124.27 424.603 123.768 423.499C123.679 423.3 123.639 423.084 123.649 422.866C123.658 422.649 123.719 422.437 123.825 422.247C124.098 422.296 124.385 422.353 124.686 422.424C129.898 423.605 132.737 424.072 134.414 428.352Z" fill="black"/>
<path d="M114.585 473.656C107.774 476.726 92.3605 473.656 92.3605 473.656L85.8725 473.281C77.4704 472.75 63.3186 471.866 58.3218 471.448C51.0309 470.854 52.8231 467.911 52.8231 467.911V450.077L88.1881 441.234C88.1881 441.234 102.168 445.953 105.996 450.077C109.631 454.003 111.731 450.983 118.248 452.115C118.571 452.171 118.908 452.242 119.259 452.32C125.417 453.735 128.758 454.265 130.729 459.302C131.128 460.359 131.447 461.445 131.683 462.549C133.461 470.656 121.395 470.593 114.585 473.656Z" fill="#A36468"/>
<path opacity="0.1" d="M130.715 459.302C129.448 460.083 128.117 460.757 126.736 461.318C122.098 463.405 117.682 465.952 112.993 467.926C108.304 469.899 103.25 471.3 98.1674 470.932C95.5149 470.741 92.7978 470.083 90.2815 470.847C88.7048 471.453 87.2209 472.272 85.8725 473.281C77.4704 472.75 63.3186 471.866 58.3218 471.448C51.0309 470.854 52.8231 467.911 52.8231 467.911V465.832C53.12 465.784 53.419 465.751 53.7193 465.733C55.4657 465.701 57.2053 465.957 58.8666 466.489L69.8281 469.404C70.1335 468.28 70.668 467.229 71.3989 466.315C72.1299 465.402 73.042 464.645 74.0794 464.091C76.1689 462.992 78.5167 462.46 80.8828 462.549C86.5607 462.627 91.9304 465.28 97.6011 465.549C99.1803 465.691 100.77 465.43 102.218 464.792C102.999 464.403 103.652 463.844 104.44 463.426C105.653 462.84 106.937 462.412 108.261 462.153C111.959 461.232 115.589 460.07 119.13 458.672C120.141 458.276 121.324 457.569 121.187 456.508C121.008 455.093 118.757 454.923 118.162 453.621C118.062 453.386 118.016 453.132 118.028 452.878C118.041 452.623 118.111 452.374 118.234 452.15C118.556 452.206 118.893 452.277 119.244 452.355C125.403 453.713 128.743 454.265 130.715 459.302Z" fill="black"/>
<path d="M99.171 351.278L97.2569 395.726C97.2569 395.726 94.3892 404.802 95.9449 407.398C97.5006 409.994 100.124 412.584 99.171 414.119C98.2175 415.654 86.747 432.25 83.0406 425.883C79.3342 419.516 75.678 391.927 75.678 391.927L79.0976 357.85L99.171 351.278Z" fill="#444053"/>
<path d="M107.473 240.537L112.792 247.555V308.592C112.792 308.592 114.348 324.863 112.792 328.223C111.237 331.583 103.351 338.304 103.351 338.304L96.7192 304.701L98.1531 269.153L107.473 240.537Z" fill="#444053"/>
<path opacity="0.1" d="M99.171 351.278L97.2569 395.726C97.2569 395.726 94.3892 404.802 95.9449 407.398C97.5006 409.994 100.124 412.584 99.171 414.119C98.2175 415.654 86.747 432.25 83.0406 425.883C79.3342 419.516 75.678 391.927 75.678 391.927L79.0976 357.85L99.171 351.278Z" fill="black"/>
<path opacity="0.1" d="M107.473 240.537L112.792 247.555V308.592C112.792 308.592 114.348 324.863 112.792 328.223C111.237 331.583 103.351 338.304 103.351 338.304L96.7192 304.701L98.1531 269.153L107.473 240.537Z" fill="black"/>
<path d="M112.792 214.504V247.52L106.82 273.221C106.82 273.221 104.906 335.241 106.577 342.782C108.247 350.323 100.841 357.404 100.841 357.404C100.841 357.404 96.5399 357.878 96.5399 361.175C96.5399 364.472 89.3709 373.909 89.3709 373.909L89.6074 392.302C89.6074 392.302 92.7188 426.732 87.9371 433.332C83.1553 439.933 89.6074 440.881 89.6074 440.881C83.6356 460.215 54.9594 455.737 52.3713 453.614C49.7833 451.492 52.3713 409.754 52.3713 409.754C52.3713 409.754 58.7805 346.085 63.7988 343.256C68.8172 340.426 64.0426 336.889 65.713 332.644C67.3834 328.4 64.0426 316.848 64.0426 316.848C64.0426 316.848 62.6087 303.166 59.0242 296.566C55.4397 289.965 55.9128 271.806 55.9128 271.806C55.9128 271.806 45.8762 258.598 42.8938 253.413C39.9115 248.227 37.9902 234.786 38.7071 224.642C39.1946 217.787 42.8436 207.805 45.1592 202.06C46.2705 199.309 47.0734 197.526 47.0734 197.526L47.7544 197.703L86.9119 207.819L112.792 214.504Z" fill="#444053"/>
<path opacity="0.1" d="M116.434 56.748C112.735 57.795 109.2 61.3887 106.125 65.7535H105.322C100.814 65.7567 96.385 64.5854 92.4827 62.3583C88.5804 60.1311 85.3431 56.9268 83.0979 53.0694C82.1596 51.471 81.4046 49.7745 80.8468 48.0113C83.062 42.458 84.7038 37.6333 84.7038 37.6333C84.7038 37.6333 127.725 53.5646 116.434 56.748Z" fill="black"/>
<path d="M130.951 39.0622C130.958 42.933 130.064 46.7535 128.338 50.2296C126.612 53.7056 124.101 56.7444 120.997 59.1118C117.894 61.4793 114.281 63.1122 110.438 63.8848C106.594 64.6574 102.622 64.5491 98.8273 63.5682C95.0327 62.5873 91.5169 60.76 88.5507 58.2271C85.5846 55.6941 83.2472 52.5231 81.7186 48.9583C80.19 45.3936 79.5111 41.5301 79.7341 37.6656C79.957 33.8011 81.076 30.0387 83.0047 26.6681C83.7817 25.2986 84.6891 24.0053 85.7146 22.8056C87.4052 20.8181 89.3922 19.0959 91.6076 17.698C95.3495 15.3515 99.6442 14.0031 104.072 13.7843C108.5 13.5656 112.91 14.484 116.871 16.4499C120.831 18.4158 124.207 21.362 126.669 25.0005C129.131 28.639 130.594 32.8454 130.916 37.2088C130.93 37.8313 130.951 38.4468 130.951 39.0622Z" fill="#EFB7B9"/>
<path opacity="0.1" d="M109.416 99.6039L109.33 100.382L97.4074 81.989C96.16 84.8965 95.4646 86.8419 95.4646 86.8419C95.4646 86.8419 67.1468 65.803 71.6274 64.3882C73.1329 63.9142 75.1116 60.7308 77.0687 56.7197L77.3125 56.2103C79.3915 62.3225 91.4714 74.5397 96.4969 79.4351C97.0776 80.0011 97.5579 80.468 97.9307 80.8075L98.6978 81.515L99.0993 81.9111C100.927 83.7717 108.641 91.9778 109.416 99.6039Z" fill="black"/>
<path d="M118.327 162.013L117.022 203.447L116.792 210.825C116.792 210.825 101.336 209.411 86.9118 207.854C75.298 206.602 64.3508 205.251 62.6661 204.459C60.5153 203.461 55.9056 202.69 52.2709 202.202C49.4606 201.827 47.2526 201.629 47.2526 201.629C47.2526 201.629 46.4281 201.869 45.1592 202.096C42.3919 202.591 37.5313 202.994 34.6995 200.568C31.0792 197.462 40.5925 186.179 42.9655 183.469L43.4888 182.882L42.5927 174.711L40.2627 153.524C40.2627 153.524 38.8289 141.321 36.6782 134.777C36.1032 132.917 35.6883 131.012 35.438 129.082C34.6389 123.106 35.0482 117.032 36.6424 111.213C37.3234 108.74 37.7557 106.207 37.9328 103.65C38.2913 97.1066 58.5439 71.8161 63.5622 69.517C65.8197 68.4782 67.6362 66.6907 68.6952 64.466C69.0449 63.7665 69.3073 63.0277 69.4767 62.2659C71.6274 53.0693 77.0687 56.7196 77.0687 56.7196C78.3806 63.9142 98.6906 82.9581 98.6906 82.9581L99.0921 83.3543C101.107 85.3916 110.082 94.9561 109.444 103.12C109.317 106.158 109.777 109.193 110.799 112.062C114.93 124.898 117.305 138.221 117.861 151.678L118.327 162.013Z" fill="#DCE6F2"/>
<path opacity="0.1" d="M89.5501 112.812C89.5501 112.812 84.5318 124.838 80.768 126.783C77.0043 128.729 91.3424 130.886 89.5501 112.812Z" fill="black"/>
<path opacity="0.1" d="M93.3139 135.272C93.3139 135.272 81.8434 136.687 81.8434 138.809C81.8434 140.932 93.3139 135.272 93.3139 135.272Z" fill="black"/>
<path opacity="0.1" d="M105.322 149.067C105.322 149.067 88.654 184.085 83.9942 185.146C79.3343 186.207 105.322 149.067 105.322 149.067Z" fill="black"/>
<path opacity="0.1" d="M98.3752 84.7337L84.5891 90.6477L67.9497 65.8454C68.2993 65.1459 68.5617 64.4071 68.7311 63.6453C70.8819 54.4487 76.3232 58.099 76.3232 58.099C77.6351 65.2936 97.9451 84.3375 97.9451 84.3375L98.3752 84.7337Z" fill="black"/>
<path d="M99.0921 83.3189L85.306 89.2329L68.6666 64.4306C69.0163 63.7311 69.2786 62.9923 69.4481 62.2305C71.5988 53.0339 77.0401 56.6842 77.0401 56.6842C78.352 63.8788 98.662 82.9227 98.662 82.9227L99.0921 83.3189Z" fill="#DCE6F2"/>
<path opacity="0.1" d="M116.792 210.826C116.792 210.826 101.336 209.411 86.9118 207.854L112.792 214.54V222.321C111.659 223.333 110.677 223.856 110.039 223.588C107.057 222.35 82.7179 218.459 82.7179 218.459C82.7179 218.459 68.5806 211.384 53.3248 202.895C52.9545 202.693 52.5955 202.471 52.2494 202.23C50.4706 201.039 48.9378 199.524 47.7329 197.766C44.9155 193.741 43.539 188.57 42.944 183.498C42.6095 180.591 42.4849 177.664 42.5712 174.74C42.6451 171.424 42.9517 168.117 43.4888 164.843C42.0134 152.162 41.2953 139.406 41.3381 126.642C41.5173 106.834 60.3361 99.7595 60.3361 99.7595C94.9269 96.753 84.2019 151.932 84.2019 151.932C84.2019 151.932 82.2018 167.496 81.6569 169.087C81.1121 170.679 79.1549 173.332 79.4202 177.046C79.6854 180.76 86.2953 185.203 86.2953 185.203C86.2953 185.203 92.7474 188.188 95.4072 192.609C97.3428 195.871 109.917 200.292 117.022 203.447L116.792 210.826Z" fill="black"/>
<path opacity="0.1" d="M128.378 23.3573C128.391 24.5225 128.146 25.6765 127.661 26.7388C127.293 27.6056 126.867 28.447 126.385 29.2573C125.63 30.7477 124.559 32.0602 123.245 33.1057C121.589 34.2729 119.495 34.5983 117.509 35.0723C115.524 35.5463 113.459 36.3032 112.326 37.9728C111.712 39.046 111.302 40.2207 111.115 41.4391C110.925 42.6566 110.432 43.8086 109.681 44.7924C109.29 45.2726 108.748 45.6111 108.141 45.7545C107.533 45.8979 106.895 45.8382 106.326 45.5847C105.726 45.1858 105.272 44.6083 105.028 43.9364C104.211 42.1183 104.003 40.1021 103.673 38.1425C103.343 36.183 102.877 34.1668 101.659 32.5892C100.44 31.0117 98.2821 29.9718 96.3679 30.5872C95.7273 30.8306 95.143 31.1992 94.6502 31.6708C94.1575 32.1425 93.7663 32.7075 93.5003 33.332C92.9705 34.5823 92.6067 35.8948 92.4178 37.237C91.5288 42.0381 90.4797 46.8109 89.2705 51.5554C89.2337 51.7498 89.1528 51.9336 89.034 52.093C88.8434 52.2804 88.5861 52.3871 88.3171 52.3901C86.7112 52.6023 85.1699 51.4917 83.5496 51.6119C83.3827 51.6229 83.2171 51.649 83.055 51.6898C80.4354 47.1973 79.2787 42.0188 79.7417 36.856C80.2046 31.6931 82.2648 26.7955 85.643 22.8268L85.772 22.7914C86.8498 22.4138 87.8292 21.805 88.6397 21.0087C89.6746 19.9867 90.6329 18.8921 91.5073 17.7333L92.0808 17.0259C93.7287 15.0669 95.6057 13.3074 97.6727 11.7838C98.2369 11.3277 98.8841 10.9819 99.5797 10.7651C100.175 10.6507 100.785 10.6316 101.386 10.7085C103.862 11.0018 106.358 11.0941 108.849 10.9844C110.585 10.7152 112.335 10.5404 114.09 10.4609C118.628 10.5883 122.499 13.7505 125.367 17.2169C126.908 18.9925 128.285 21.037 128.378 23.3573Z" fill="black"/>
<path d="M79.6567 27.3402C78.6602 28.9531 76.8608 30.0496 76.1869 31.8182C75.1975 34.3862 76.8679 37.5837 75.3338 39.8758C74.8248 40.6469 73.986 41.2199 73.6992 42.1042C73.2117 43.5968 74.5452 45.1886 74.2011 46.7237C73.8569 48.2588 71.8066 49.5534 72.3514 51.0531C72.6734 51.7072 73.2382 52.2138 73.9286 52.468C75.0149 53.0829 76.2652 53.3568 77.5132 53.2532C79.4703 52.9349 80.9256 51.039 82.9115 50.8975C84.5245 50.7843 86.0659 51.8879 87.6717 51.6827C87.9409 51.6735 88.1967 51.5649 88.3886 51.3785C88.5105 51.2209 88.5916 51.0364 88.6252 50.8409C89.8296 46.1011 90.8811 41.3284 91.7796 36.5226C91.9627 35.18 92.3242 33.867 92.8549 32.6176C93.1231 31.9944 93.515 31.4304 94.0075 30.959C94.5 30.4876 95.0831 30.1183 95.7226 29.8728C97.6367 29.2644 99.7874 30.2972 101.013 31.8748C102.239 33.4523 102.705 35.4685 103.035 37.4281C103.365 39.3877 103.573 41.4038 104.383 43.2219C104.629 43.8962 105.086 44.4759 105.688 44.8773C106.763 45.4928 108.211 45.0046 109.036 44.085C109.791 43.1009 110.284 41.9455 110.469 40.7247C110.656 39.5084 111.067 38.3361 111.681 37.2654C112.814 35.5959 114.885 34.8389 116.864 34.3649C118.843 33.891 120.929 33.5585 122.599 32.3912C123.912 31.3469 124.983 30.037 125.739 28.5499C126.8 26.7247 127.79 24.7439 127.704 22.6429C127.611 20.3508 126.234 18.3063 124.764 16.5236C121.897 13.0572 118.018 9.89504 113.48 9.77478C111.725 9.84723 109.975 10.022 108.24 10.2983C105.748 10.4088 103.252 10.3142 100.777 10.0153C100.175 9.94426 99.5654 9.96573 98.9702 10.079C98.2738 10.2888 97.6276 10.6353 97.0704 11.0977C95.0013 12.6187 93.1219 14.3759 91.4713 16.3326C90.407 17.7251 89.2528 19.0484 88.0158 20.2942C87.2051 21.0918 86.2259 21.7029 85.1482 22.084C84.4313 22.2821 83.7144 22.1406 83.0333 22.3599C80.9185 23.0178 80.6389 25.7414 79.6567 27.3402Z" fill="#333333"/>
<path opacity="0.1" d="M148.695 46.5751C142.96 47.615 138.207 43.038 135.576 39.6989C134.767 38.6848 134.032 37.6164 133.375 36.5013L153.061 40.1658L153.857 40.3144C153.857 40.3144 157.477 44.9905 148.695 46.5751Z" fill="black"/>
<g opacity="0.1">
<path opacity="0.1" d="M74.2012 44.7004C74.2814 43.7752 74.1389 42.8444 73.7854 41.9839C73.7854 42.0546 73.7208 42.1254 73.6993 42.1961C73.391 43.1441 73.8069 44.1274 74.0721 45.1107C74.1291 44.9786 74.1723 44.8411 74.2012 44.7004V44.7004Z" fill="black"/>
<path opacity="0.1" d="M75.9074 33.1199C75.8337 34.0981 75.8529 35.081 75.9648 36.0557C76.0383 35.0775 76.0191 34.0946 75.9074 33.1199Z" fill="black"/>
<path opacity="0.1" d="M125.697 26.5054C124.942 27.9958 123.871 29.3084 122.556 30.3538C120.9 31.5211 118.814 31.8465 116.821 32.3205C114.828 32.7944 112.771 33.5514 111.638 35.2209C111.025 36.2946 110.615 37.4691 110.426 38.6873C110.24 39.9078 109.747 41.0629 108.993 42.0476C108.168 42.9672 106.72 43.4624 105.645 42.8399C105.043 42.4385 104.586 41.8588 104.34 41.1845C103.53 39.3664 103.315 37.3573 102.992 35.3907C102.67 33.424 102.189 31.415 100.97 29.8374C99.7517 28.2598 97.5938 27.2199 95.6797 27.8354C95.0396 28.0798 94.4559 28.4488 93.9633 28.9203C93.4706 29.3918 93.0791 29.9563 92.812 30.5802C92.2813 31.8296 91.9198 33.1426 91.7367 34.4852C90.8429 39.291 89.7915 44.0637 88.5823 48.8035C88.5487 48.999 88.4676 49.1835 88.3457 49.3411C88.1538 49.5275 87.898 49.6361 87.6288 49.6453C86.023 49.8505 84.4816 48.7469 82.8686 48.8601C80.8827 49.0016 79.4274 50.8975 77.4703 51.2087C76.2219 51.3192 74.9695 51.0449 73.8857 50.4235C73.3874 50.2119 72.9403 49.8985 72.5738 49.5039C72.406 49.7409 72.295 50.0124 72.2491 50.2979C72.2031 50.5834 72.2234 50.8755 72.3085 51.1521C72.6243 51.8108 73.1913 52.3194 73.8857 52.567C74.9695 53.1884 76.2219 53.4627 77.4703 53.3522C79.4274 53.041 80.8827 51.1451 82.8686 51.0036C84.4816 50.8904 86.023 51.994 87.6288 51.7888C87.898 51.7796 88.1538 51.671 88.3457 51.4846C88.4676 51.327 88.5487 51.1425 88.5823 50.947C89.7867 46.2308 90.8382 41.458 91.7367 36.6287C91.9198 35.2861 92.2813 33.9731 92.812 32.7237C93.0791 32.0998 93.4706 31.5354 93.9633 31.0638C94.4559 30.5923 95.0396 30.2233 95.6797 29.9789C97.5938 29.3634 99.7445 30.4033 100.97 31.9809C102.196 33.5585 102.662 35.5746 102.992 37.5342C103.322 39.4938 103.53 41.5099 104.34 43.328C104.586 44.0023 105.043 44.582 105.645 44.9834C106.72 45.5989 108.168 45.1107 108.993 44.1911C109.747 43.2064 110.24 42.0513 110.426 40.8308C110.615 39.6126 111.025 38.4381 111.638 37.3644C112.771 35.6949 114.843 34.945 116.821 34.464C118.8 33.9829 120.886 33.6646 122.556 32.4973C123.871 31.4519 124.942 30.1393 125.697 28.6489C126.758 26.8308 127.747 24.85 127.661 22.749C127.647 22.4788 127.618 22.2096 127.575 21.9425C127.229 23.5617 126.593 25.1069 125.697 26.5054V26.5054Z" fill="black"/>
</g>
<path opacity="0.1" d="M127.69 26.7176C129.528 29.9431 130.618 33.5312 130.88 37.2229C124.492 33.6857 118.484 29.802 115.452 28.4508C110.168 26.095 90.4104 26.4488 82.9833 26.6681C83.7602 25.2985 84.6676 24.0052 85.6932 22.8055C87.3903 20.8164 89.3847 19.0941 91.6077 17.6979C94.5516 15.8543 97.8456 14.6224 101.288 14.0776C104.731 13.5329 108.25 13.6866 111.631 14.5295C115.011 15.3724 118.182 16.8867 120.949 18.9799C123.717 21.0731 126.022 23.7011 127.725 26.7034L127.69 26.7176Z" fill="black"/>
<path opacity="0.1" d="M150.487 43.5756C147.039 44.6226 141.411 42.5994 135.576 39.6989C134.767 38.6848 134.032 37.6164 133.375 36.5013L153.061 40.1658C154.366 41.043 154.695 42.2952 150.487 43.5756Z" fill="black"/>
<path d="M106.849 2.19115C106.849 2.19115 88.0302 1.13001 82.7395 11.2108L81.8863 20.1456L80.4525 19.99L80.1658 26.0668C80.1658 26.0668 108.928 24.8288 115.473 27.7434C122.019 30.658 142.357 45.3442 150.509 42.8682C158.66 40.3922 149.792 38.0931 149.792 38.0931C149.792 38.0931 138.572 33.4028 138.572 29.7242C138.572 26.0456 135.791 6.61257 106.849 2.19115Z" fill="#444053"/>
<path opacity="0.1" d="M70.5521 333.408C70.5521 333.408 82.5603 344.904 87.7579 344.02C87.7579 344.02 73.0613 342.782 70.5521 333.408Z" fill="black"/>
<path opacity="0.1" d="M68.0428 338.735C68.0428 338.735 69.1182 344.649 71.9858 344.069C74.8535 343.489 68.0428 338.735 68.0428 338.735Z" fill="black"/>
<path opacity="0.1" d="M86.8617 437.577C86.8617 437.577 69.8136 450.664 72.6884 451.018C75.5632 451.372 86.8617 437.577 86.8617 437.577Z" fill="black"/>
<path d="M109.667 177.831L164.868 168.967V220.538L112.419 217.829L109.667 177.831Z" fill="white"/>
<path opacity="0.05" d="M109.667 177.831L164.868 168.967V220.538L112.419 217.829L109.667 177.831Z" fill="black"/>
<path d="M164.868 168.967L231.067 173.855L227.404 218.735L164.868 220.538V168.967Z" fill="white"/>
<path opacity="0.1" d="M164.868 168.967L231.067 173.855L227.404 218.735L164.868 220.538V168.967Z" fill="black"/>
<path d="M185.221 153.227L164.868 168.967L231.067 173.855L241.886 157.747L185.221 153.227Z" fill="white"/>
<path d="M89.6791 160.641L139.375 154.67L164.868 168.967L109.666 177.831L89.6791 160.641Z" fill="white"/>
<path d="M176.97 182.359V252.868L151.111 250.25L139.863 249.118L136.436 248.765L125.195 247.626L109.667 246.055V177.831L164.861 181.538L176.97 182.359Z" fill="white"/>
<path d="M231.067 173.855V242.617L210.342 246.543L200.262 248.453L176.97 252.868V182.359L231.067 173.855Z" fill="white"/>
<path opacity="0.05" d="M231.067 173.855V242.617L210.342 246.543L200.262 248.453L176.97 252.868V182.359L231.067 173.855Z" fill="black"/>
<path d="M89.6791 192.673L109.666 177.831L176.97 182.359L167.062 198.827L89.6791 192.673Z" fill="white"/>
<path opacity="0.1" d="M89.6791 192.673L109.666 177.831L176.97 182.359L167.062 198.827L89.6791 192.673Z" fill="white"/>
<path d="M231.067 173.855L176.97 182.359L194.577 197.922L252.524 188.329L231.067 173.855Z" fill="white"/>
<path opacity="0.1" d="M231.067 173.855L176.97 182.359L194.577 197.922L252.524 188.329L231.067 173.855Z" fill="white"/>
<path opacity="0.1" d="M210.342 246.543L200.262 248.454V233.76L209.704 231.412L210.342 246.543Z" fill="white"/>
<path opacity="0.1" d="M151.111 240.53V250.25L139.863 249.118V240.53H151.111Z" fill="white"/>
<path opacity="0.1" d="M136.436 243.594V248.765L125.195 247.626V243.594H136.436Z" fill="white"/>
<path opacity="0.1" d="M170.202 235.373C162.495 245.1 137.045 238.38 137.045 238.38L118.133 218.911L115.567 216.273L120.585 207.076C120.585 207.076 122.019 207.543 124.413 208.364C137.088 212.736 176.69 227.188 170.202 235.373Z" fill="black"/>
<path d="M169.485 233.958C161.778 243.685 136.328 236.965 136.328 236.965L117.416 217.496L114.85 214.858L119.868 205.661C119.868 205.661 121.302 206.128 123.696 206.949C136.371 211.321 175.973 225.773 169.485 233.958Z" fill="#EFB7B9"/>
<path opacity="0.1" d="M123.668 206.949C122.621 209.92 119.961 214.32 117.388 217.496L114.821 214.858L119.839 205.661C119.839 205.661 121.28 206.128 123.668 206.949Z" fill="black"/>
<path d="M61.053 96.9297C61.053 96.9297 42.2343 104.004 42.055 123.812C42.0122 136.576 42.7303 149.332 44.2058 162.013C44.2058 162.013 38.829 191.548 54.0632 200.037C69.2975 208.526 83.4564 215.601 83.4564 215.601C83.4564 215.601 107.795 219.491 110.785 220.729C113.774 221.967 124.162 206.05 122.549 203.397C120.936 200.745 98.7767 194.201 96.1456 189.779C93.5146 185.358 87.0337 182.38 87.0337 182.38C87.0337 182.38 80.4239 177.93 80.1586 174.216C79.8933 170.502 81.8433 167.849 82.3953 166.258C82.9474 164.666 84.9475 149.102 84.9475 149.102C84.9475 149.102 95.6438 93.8878 61.053 96.9297Z" fill="#DCE6F2"/>
<path opacity="0.1" d="M69.6559 162.508C69.6559 162.508 44.2058 165.338 46.1773 174.181C46.1773 174.181 55.8483 165.26 69.6559 162.508Z" fill="black"/>
<path opacity="0.1" d="M69.6559 166.045C69.6559 166.045 55.2102 176.48 57.8628 177.187C60.5154 177.895 69.6559 166.045 69.6559 166.045Z" fill="black"/>
<path opacity="0.1" d="M76.1081 170.29C76.1081 170.29 71.9859 177.605 74.3158 177.223C76.6457 176.841 76.1081 170.29 76.1081 170.29Z" fill="black"/>
<defs>
<linearGradient id="paint0_linear" x1="32.2621" y1="238.733" x2="256.03" y2="238.733" gradientUnits="userSpaceOnUse">
<stop stop-color="#808080" stop-opacity="0.25"/>
<stop offset="0.54" stop-color="#808080" stop-opacity="0.12"/>
<stop offset="1" stop-color="#808080" stop-opacity="0.1"/>
</linearGradient>
</defs>
</svg>
